G04 Layer_Physical_Order=1*
G04 Layer_Color=255*
%FSLAX43Y43*%
%MOMM*%
G71*
G01*
G75*
%ADD10R,1.100X1.100*%
%ADD11R,0.850X1.300*%
%ADD12R,1.300X0.850*%
%ADD13R,1.050X1.400*%
%ADD14R,0.900X1.000*%
%ADD15R,1.550X1.350*%
%ADD16R,1.350X1.550*%
%ADD17R,1.100X1.100*%
%ADD18R,0.600X1.520*%
%ADD19O,1.650X0.450*%
%ADD20O,0.450X1.650*%
%ADD21R,1.250X0.600*%
%ADD22R,0.650X1.100*%
%ADD23R,1.000X0.900*%
%ADD24R,1.000X1.000*%
%ADD25C,0.381*%
%ADD26C,0.254*%
%ADD27R,3.200X1.300*%
%ADD28C,1.600*%
%ADD29R,1.600X1.600*%
%ADD30C,1.200*%
%ADD31R,1.200X1.200*%
G36*
X52741Y259D02*
X259D01*
Y30741D01*
X52741D01*
Y259D01*
D02*
G37*
%LPC*%
G36*
X37689Y8053D02*
X36581D01*
Y6025D01*
X37689D01*
Y8053D01*
D02*
G37*
G36*
X38959D02*
X37851D01*
Y6025D01*
X38959D01*
Y8053D01*
D02*
G37*
G36*
X24020Y7778D02*
X22512D01*
Y6370D01*
X24020D01*
Y6621D01*
X24861D01*
Y6028D01*
X25226D01*
Y5681D01*
X25042D01*
Y4073D01*
X26650D01*
Y5681D01*
X26133D01*
Y6028D01*
X26269D01*
Y7536D01*
X24861D01*
Y7527D01*
X24020D01*
Y7778D01*
D02*
G37*
G36*
X19187Y6474D02*
X18029D01*
Y5990D01*
X17339D01*
Y6457D01*
X15731D01*
Y5990D01*
X14287D01*
X14287Y5990D01*
X14267Y5986D01*
X13406D01*
Y4478D01*
X14814D01*
Y5084D01*
X15731D01*
Y4849D01*
X17339D01*
Y5084D01*
X18029D01*
Y4866D01*
X19187D01*
Y6474D01*
D02*
G37*
G36*
X43612Y27479D02*
X43337Y27443D01*
X43080Y27337D01*
X42860Y27168D01*
X42691Y26948D01*
X42585Y26691D01*
X42549Y26416D01*
X42585Y26141D01*
X42691Y25884D01*
X42860Y25664D01*
X43080Y25495D01*
X43159Y25463D01*
Y24750D01*
X41849Y23440D01*
X38049D01*
X37876Y23406D01*
X37729Y23307D01*
X37729Y23307D01*
X33289Y18868D01*
X31628D01*
Y19421D01*
X30270D01*
Y17613D01*
X31628D01*
Y17962D01*
X33477D01*
X33651Y17996D01*
X33798Y18095D01*
X38237Y22534D01*
X42037D01*
X42210Y22568D01*
X42357Y22667D01*
X43932Y24241D01*
X43932Y24241D01*
X44031Y24388D01*
X44065Y24562D01*
Y25463D01*
X44143Y25495D01*
X44364Y25664D01*
X44532Y25884D01*
X44639Y26141D01*
X44675Y26416D01*
X44639Y26691D01*
X44532Y26948D01*
X44364Y27168D01*
X44143Y27337D01*
X43887Y27443D01*
X43612Y27479D01*
D02*
G37*
G36*
X36728Y29562D02*
X36555Y29527D01*
X36408Y29429D01*
X35671Y28692D01*
X35573Y28545D01*
X35539Y28372D01*
Y27470D01*
X34938D01*
Y25362D01*
X35687D01*
X35859Y25328D01*
X36031Y25362D01*
X37046D01*
Y27470D01*
X36445D01*
Y28184D01*
X36916Y28655D01*
X45939D01*
X46994Y27600D01*
Y27246D01*
X46867Y27196D01*
X46683Y27337D01*
X46427Y27443D01*
X46152Y27479D01*
X45877Y27443D01*
X45620Y27337D01*
X45400Y27168D01*
X45231Y26948D01*
X45125Y26691D01*
X45089Y26416D01*
X45125Y26141D01*
X45231Y25884D01*
X45400Y25664D01*
X45620Y25495D01*
X45699Y25463D01*
Y25207D01*
X42586Y22094D01*
X38760D01*
X38587Y22060D01*
X38440Y21961D01*
X38440Y21961D01*
X33442Y16963D01*
X31679D01*
Y17312D01*
X30321D01*
Y15504D01*
X31679D01*
Y16057D01*
X33630D01*
X33803Y16091D01*
X33950Y16190D01*
X38948Y21188D01*
X42774D01*
X42947Y21222D01*
X43094Y21320D01*
X46472Y24699D01*
X46571Y24846D01*
X46605Y25019D01*
Y25463D01*
X46683Y25495D01*
X46867Y25636D01*
X46994Y25586D01*
Y20923D01*
X45314D01*
X45214Y20903D01*
X45130Y20847D01*
X45074Y20763D01*
X45055Y20664D01*
Y19364D01*
X45074Y19265D01*
X45130Y19181D01*
X45214Y19125D01*
X45314Y19105D01*
X48514D01*
X48613Y19125D01*
X48697Y19181D01*
X48753Y19265D01*
X48773Y19364D01*
Y19551D01*
X49963D01*
X50626Y18888D01*
Y17567D01*
X50509Y17518D01*
X49520Y18507D01*
X49373Y18605D01*
X49200Y18640D01*
X48798D01*
Y18664D01*
X48778Y18763D01*
X48722Y18847D01*
X48638Y18903D01*
X48539Y18923D01*
X45339D01*
X45240Y18903D01*
X45187Y18868D01*
X42268D01*
Y19346D01*
X41852D01*
Y19674D01*
X41823Y19823D01*
X41738Y19949D01*
X41346Y20341D01*
X41220Y20425D01*
X41072Y20454D01*
X38913D01*
X38764Y20425D01*
X38638Y20341D01*
X36943Y18646D01*
X36859Y18520D01*
X36829Y18371D01*
Y15382D01*
X35733D01*
Y14931D01*
X34341D01*
X34341Y14931D01*
X34167Y14897D01*
X34020Y14798D01*
X32407Y13185D01*
X27294D01*
X27226Y13312D01*
X27248Y13345D01*
X27285Y13532D01*
X27248Y13719D01*
X27162Y13847D01*
X27150Y13932D01*
X27162Y14017D01*
X27248Y14145D01*
X27285Y14332D01*
X27248Y14519D01*
X27162Y14647D01*
X27150Y14732D01*
X27162Y14817D01*
X27248Y14945D01*
X27285Y15132D01*
X27248Y15319D01*
X27142Y15477D01*
Y15587D01*
X27248Y15745D01*
X27285Y15932D01*
X27248Y16119D01*
X27226Y16152D01*
X27294Y16279D01*
X28621D01*
Y15504D01*
X29979D01*
Y17312D01*
X28621D01*
Y17185D01*
X27912D01*
X27859Y17312D01*
X28443Y17896D01*
X28570Y17843D01*
Y17613D01*
X29928D01*
Y19421D01*
X28570D01*
Y18868D01*
X28321D01*
X28148Y18834D01*
X28001Y18735D01*
X28001Y18735D01*
X27250Y17985D01*
X26974D01*
X26797Y18020D01*
X25597D01*
X25410Y17983D01*
X25273Y17892D01*
X25182Y17983D01*
X25221Y18043D01*
X25273Y18120D01*
X25310Y18307D01*
Y19507D01*
X25273Y19694D01*
X25167Y19852D01*
X25009Y19958D01*
X24822Y19995D01*
X24635Y19958D01*
X24506Y19872D01*
X24422Y19860D01*
X24337Y19872D01*
X24209Y19958D01*
X24022Y19995D01*
X23835Y19958D01*
X23706Y19872D01*
X23622Y19860D01*
X23537Y19872D01*
X23409Y19958D01*
X23222Y19995D01*
X23035Y19958D01*
X22906Y19872D01*
X22822Y19860D01*
X22737Y19872D01*
X22609Y19958D01*
X22422Y19995D01*
X22235Y19958D01*
X22106Y19872D01*
X22022Y19860D01*
X21937Y19872D01*
X21809Y19958D01*
X21622Y19995D01*
X21435Y19958D01*
X21306Y19872D01*
X21222Y19860D01*
X21137Y19872D01*
X21009Y19958D01*
X20822Y19995D01*
X20767Y19985D01*
X20682Y20097D01*
Y21884D01*
X19324D01*
Y20076D01*
X19569D01*
Y19684D01*
X19533Y19507D01*
Y18307D01*
X19571Y18120D01*
X19586Y18097D01*
X19526Y17985D01*
X18624D01*
X18447Y18020D01*
X18081D01*
Y24018D01*
X18256Y24193D01*
X18373Y24145D01*
Y24023D01*
X19981D01*
Y24388D01*
X20786D01*
Y24023D01*
X22394D01*
Y24388D01*
X23072D01*
Y24023D01*
X24680D01*
Y25631D01*
X23072D01*
Y25294D01*
X22394D01*
Y25631D01*
X20786D01*
Y25294D01*
X19981D01*
Y25631D01*
X18373D01*
Y25294D01*
X18263D01*
X18089Y25260D01*
X17942Y25162D01*
X17942Y25162D01*
X17307Y24527D01*
X17209Y24380D01*
X17174Y24206D01*
Y18006D01*
X17060Y17983D01*
X16901Y17877D01*
X16887Y17856D01*
X16760Y17894D01*
Y18745D01*
X16726Y18919D01*
X16627Y19066D01*
X16221Y19472D01*
X16074Y19570D01*
X15900Y19605D01*
X15721D01*
Y20358D01*
X15109D01*
Y20980D01*
X15109Y20980D01*
X15075Y21154D01*
X14976Y21301D01*
X13859Y22418D01*
X13712Y22517D01*
X13538Y22551D01*
X8712D01*
X8712Y22551D01*
X8539Y22517D01*
X8392Y22418D01*
X8392Y22418D01*
X6207Y20234D01*
X6109Y20087D01*
X6075Y19914D01*
Y19142D01*
X5674D01*
Y17434D01*
X5569Y17381D01*
X4454D01*
X4122Y17712D01*
Y22851D01*
X8010Y26739D01*
X30751D01*
X33304Y24186D01*
X33430Y24101D01*
X33579Y24072D01*
X40335D01*
X40484Y24101D01*
X40610Y24186D01*
X41346Y24922D01*
X41431Y25048D01*
X41460Y25197D01*
Y25436D01*
X41603Y25495D01*
X41824Y25664D01*
X41992Y25884D01*
X42099Y26141D01*
X42135Y26416D01*
X42099Y26691D01*
X41992Y26948D01*
X41824Y27168D01*
X41603Y27337D01*
X41347Y27443D01*
X41072Y27479D01*
X40797Y27443D01*
X40540Y27337D01*
X40320Y27168D01*
X40151Y26948D01*
X40045Y26691D01*
X40009Y26416D01*
X40045Y26141D01*
X40151Y25884D01*
X40320Y25664D01*
X40540Y25495D01*
X40625Y25460D01*
X40644Y25319D01*
X40174Y24849D01*
X33740D01*
X31186Y27402D01*
X31060Y27486D01*
X30912Y27516D01*
X7849D01*
X7700Y27486D01*
X7574Y27402D01*
X3459Y23287D01*
X3375Y23161D01*
X3345Y23012D01*
Y17551D01*
X3375Y17403D01*
X3459Y17277D01*
X4018Y16718D01*
X4144Y16634D01*
X4293Y16604D01*
X7341D01*
X7489Y16634D01*
X7615Y16718D01*
X8428Y17531D01*
X8512Y17657D01*
X8542Y17805D01*
Y19829D01*
X9483Y20770D01*
X12895D01*
X13348Y20317D01*
Y18397D01*
X13355Y18358D01*
Y17820D01*
X12053D01*
Y17024D01*
X11291D01*
Y17201D01*
X9233D01*
Y17024D01*
X9027D01*
X9027Y17024D01*
X8854Y16990D01*
X8707Y16891D01*
X8707Y16891D01*
X6207Y14392D01*
X6109Y14245D01*
X6085Y14125D01*
X5919Y13997D01*
X5782Y13819D01*
X5696Y13611D01*
X5666Y13388D01*
X5696Y13165D01*
X5782Y12957D01*
X5919Y12779D01*
X6097Y12642D01*
X6305Y12556D01*
X6528Y12527D01*
X6751Y12556D01*
X6958Y12642D01*
X7137Y12779D01*
X7274Y12957D01*
X7360Y13165D01*
X7389Y13388D01*
X7360Y13611D01*
X7274Y13819D01*
X7137Y13997D01*
X7134Y14037D01*
X9106Y16008D01*
X9233Y15956D01*
Y15343D01*
X11291D01*
Y16118D01*
X12053D01*
Y15912D01*
X13037D01*
X13086Y15794D01*
X12769Y15477D01*
X12685Y15351D01*
X12655Y15203D01*
Y15052D01*
X12365D01*
Y14677D01*
X11227D01*
X11227Y14677D01*
X11053Y14643D01*
X10906Y14544D01*
X10906Y14544D01*
X7996Y11634D01*
X7898Y11487D01*
X7864Y11314D01*
Y9821D01*
X7513D01*
Y8213D01*
X9121D01*
Y9821D01*
X8770D01*
Y11126D01*
X11415Y13771D01*
X12365D01*
Y13244D01*
X13723D01*
Y15052D01*
X13608D01*
X13559Y15169D01*
X13919Y15529D01*
X14046Y15476D01*
X14046Y12402D01*
X13301D01*
Y12753D01*
X11693D01*
Y12402D01*
X11365D01*
X11365Y12402D01*
X11191Y12368D01*
X11044Y12269D01*
X10119Y11344D01*
X10021Y11197D01*
X9986Y11024D01*
Y8697D01*
X9216Y7926D01*
X9118Y7779D01*
X9084Y7611D01*
X8605D01*
Y6003D01*
X9083D01*
Y5593D01*
X8657D01*
Y4485D01*
X10415D01*
Y4535D01*
X11806D01*
Y4478D01*
X13214D01*
Y5986D01*
X11806D01*
Y5442D01*
X10415D01*
Y5593D01*
X9990D01*
Y6003D01*
X10213D01*
Y7611D01*
X10213Y7611D01*
X10213D01*
X10279Y7708D01*
X10760Y8189D01*
X10858Y8336D01*
X10893Y8509D01*
X10893Y8509D01*
Y10836D01*
X11553Y11496D01*
X11693D01*
Y11145D01*
X13301D01*
Y11496D01*
X14046D01*
Y11125D01*
X18733Y11125D01*
Y9957D01*
X18771Y9770D01*
X18876Y9612D01*
X19035Y9506D01*
X19222Y9469D01*
X19409Y9506D01*
X19567Y9612D01*
X19676D01*
X19835Y9506D01*
X20022Y9469D01*
X20209Y9506D01*
X20367Y9612D01*
X20476D01*
X20635Y9506D01*
X20822Y9469D01*
X21009Y9506D01*
X21167Y9612D01*
X21276D01*
X21435Y9506D01*
X21622Y9469D01*
X21809Y9506D01*
X21967Y9612D01*
X22076D01*
X22235Y9506D01*
X22406Y9472D01*
X22489Y9389D01*
X22512Y9324D01*
X22512Y9324D01*
Y7970D01*
X24020D01*
Y9349D01*
X24021Y9379D01*
X24080Y9480D01*
X24209Y9506D01*
X24367Y9612D01*
X24473Y9770D01*
X24510Y9957D01*
Y11157D01*
X24473Y11344D01*
X24367Y11502D01*
X24209Y11608D01*
X24022Y11645D01*
X23835Y11608D01*
X23676Y11502D01*
X23567D01*
X23409Y11608D01*
X23222Y11645D01*
X23035Y11608D01*
X22876Y11502D01*
X22767D01*
X22609Y11608D01*
X22422Y11645D01*
X22235Y11608D01*
X22076Y11502D01*
X21967D01*
X21809Y11608D01*
X21622Y11645D01*
X21435Y11608D01*
X21276Y11502D01*
X21167D01*
X21009Y11608D01*
X20822Y11645D01*
X20635Y11608D01*
X20476Y11502D01*
X20367D01*
X20209Y11608D01*
X20022Y11645D01*
X19835Y11608D01*
X19676Y11502D01*
X19567D01*
X19409Y11608D01*
X19222Y11645D01*
X19035Y11608D01*
X18898Y11517D01*
X18807Y11608D01*
X18898Y11745D01*
X18935Y11932D01*
X18898Y12119D01*
X18804Y12259D01*
X18792Y12387D01*
X18898Y12545D01*
X18935Y12732D01*
X18898Y12919D01*
X18792Y13077D01*
Y13187D01*
X18898Y13345D01*
X18935Y13532D01*
X18898Y13719D01*
X18804Y13859D01*
X18797Y13932D01*
X18804Y14005D01*
X18898Y14145D01*
X18935Y14332D01*
X18898Y14519D01*
X18804Y14659D01*
X18797Y14732D01*
X18804Y14805D01*
X18898Y14945D01*
X18935Y15132D01*
X18898Y15319D01*
X18792Y15477D01*
Y15587D01*
X18898Y15745D01*
X18935Y15932D01*
X18898Y16119D01*
X18812Y16247D01*
X18800Y16332D01*
X18812Y16417D01*
X18898Y16545D01*
X18935Y16732D01*
X18898Y16919D01*
X18876Y16952D01*
X18944Y17079D01*
X19542D01*
X25009Y11612D01*
X25009Y11612D01*
X25156Y11513D01*
X25330Y11479D01*
X25330Y11479D01*
X25420D01*
X25597Y11444D01*
X26797D01*
X26974Y11479D01*
X27047D01*
X27157Y11369D01*
Y10668D01*
X27191Y10495D01*
X27289Y10348D01*
X27543Y10094D01*
X27543Y10094D01*
X27690Y9995D01*
X27864Y9961D01*
X28076D01*
Y9748D01*
X29684D01*
Y9961D01*
X30362D01*
Y9748D01*
X31970D01*
Y9961D01*
X32648D01*
Y9748D01*
X34256D01*
Y10099D01*
X34730D01*
Y10002D01*
X36238D01*
Y10088D01*
X36373D01*
X36546Y10122D01*
X36693Y10221D01*
X37455Y10983D01*
X37554Y11130D01*
X37588Y11303D01*
Y11505D01*
X37689D01*
Y13438D01*
X37770Y13485D01*
X37851Y13438D01*
Y11505D01*
X38959D01*
Y13533D01*
X38928D01*
X38901Y13610D01*
X38983Y13724D01*
X39222D01*
Y13533D01*
X39121D01*
Y11505D01*
X39222D01*
Y11364D01*
X37544Y9686D01*
X36238D01*
Y9810D01*
X34730D01*
Y8402D01*
X36238D01*
Y8780D01*
X37732D01*
X37905Y8814D01*
X38052Y8913D01*
X39995Y10856D01*
X40094Y11003D01*
X40128Y11176D01*
X40128Y11176D01*
Y11505D01*
X40229D01*
Y13533D01*
X40128D01*
Y13724D01*
X40341D01*
Y15232D01*
X40128D01*
Y15579D01*
X40468D01*
Y17187D01*
X38860D01*
Y15579D01*
X39222D01*
Y15232D01*
X38933D01*
Y14559D01*
X38806Y14499D01*
X38791Y14511D01*
Y15382D01*
X37606D01*
Y18210D01*
X39074Y19678D01*
X40911D01*
X41075Y19513D01*
Y19346D01*
X40660D01*
Y17738D01*
X42268D01*
Y17962D01*
X45080D01*
Y17364D01*
X45100Y17265D01*
X45156Y17181D01*
X45240Y17125D01*
X45339Y17105D01*
X48539D01*
X48638Y17125D01*
X48722Y17181D01*
X48778Y17265D01*
X48798Y17364D01*
Y17733D01*
X49012D01*
X49864Y16881D01*
Y6055D01*
X46904Y3095D01*
X23512D01*
Y3485D01*
X21904D01*
X21904Y3485D01*
Y3485D01*
X21796Y3534D01*
X21739Y3591D01*
X21592Y3689D01*
X21418Y3724D01*
X21087D01*
Y4074D01*
X20615D01*
X20567Y4192D01*
X20828Y4454D01*
X20828Y4454D01*
X20927Y4601D01*
X20961Y4774D01*
Y4866D01*
X21087D01*
Y6474D01*
X19929D01*
Y4866D01*
X19929Y4866D01*
X19929D01*
X19863Y4770D01*
X19292Y4199D01*
X19263Y4170D01*
X19263Y4170D01*
X19238Y4144D01*
X19210Y4103D01*
X19210Y4103D01*
X19092Y4074D01*
X18029D01*
Y2466D01*
X19105D01*
Y2296D01*
X18583Y1774D01*
X17314D01*
Y2419D01*
X15706D01*
Y1774D01*
X13574D01*
X13036Y2312D01*
Y3649D01*
X11428D01*
Y3643D01*
X10415D01*
Y3693D01*
X8657D01*
Y2585D01*
X10415D01*
Y2737D01*
X11428D01*
Y2041D01*
X12025D01*
X13065Y1000D01*
X13212Y902D01*
X13386Y868D01*
X13386Y868D01*
X15706D01*
Y811D01*
X17314D01*
Y868D01*
X18771D01*
X18777Y869D01*
X18815Y861D01*
X47720D01*
X47894Y896D01*
X48041Y994D01*
X51400Y4353D01*
X51400Y4353D01*
X51498Y4500D01*
X51533Y4674D01*
X51533Y4674D01*
Y19075D01*
X51498Y19249D01*
X51400Y19396D01*
X50471Y20324D01*
X50324Y20423D01*
X50151Y20457D01*
X48773D01*
Y20664D01*
X48753Y20763D01*
X48697Y20847D01*
X48613Y20903D01*
X48514Y20923D01*
X47901D01*
Y27788D01*
X47866Y27961D01*
X47768Y28108D01*
X46447Y29429D01*
X46300Y29527D01*
X46126Y29562D01*
X36728D01*
X36728Y29562D01*
D02*
G37*
G36*
X48539Y14923D02*
X45339D01*
X45240Y14903D01*
X45156Y14847D01*
X45100Y14763D01*
X45080Y14664D01*
Y14423D01*
X44247D01*
X44247Y14423D01*
X44073Y14389D01*
X43926Y14290D01*
X43926Y14290D01*
X42608Y12972D01*
X41499D01*
Y13533D01*
X40391D01*
Y11505D01*
X41499D01*
Y12066D01*
X42796D01*
X42969Y12100D01*
X43116Y12199D01*
X44435Y13517D01*
X45080D01*
Y13364D01*
X45100Y13265D01*
X45156Y13181D01*
X45240Y13125D01*
X45339Y13105D01*
X48539D01*
X48638Y13125D01*
X48722Y13181D01*
X48778Y13265D01*
X48798Y13364D01*
Y14664D01*
X48778Y14763D01*
X48722Y14847D01*
X48638Y14903D01*
X48539Y14923D01*
D02*
G37*
G36*
X40229Y8053D02*
X39121D01*
Y6025D01*
X40229D01*
Y8053D01*
D02*
G37*
G36*
X48539Y10923D02*
X45339D01*
X45240Y10903D01*
X45156Y10847D01*
X45100Y10763D01*
X45080Y10664D01*
Y10486D01*
X44416D01*
Y10721D01*
X42808D01*
Y10486D01*
X42723D01*
X42549Y10452D01*
X42402Y10353D01*
X42402Y10353D01*
X41767Y9718D01*
X41669Y9571D01*
X41635Y9398D01*
Y6157D01*
X40376Y4898D01*
X35037D01*
X33010Y6924D01*
X32863Y7023D01*
X32690Y7057D01*
X30546D01*
Y7117D01*
X28738D01*
Y7057D01*
X27869D01*
Y7536D01*
X26461D01*
Y6028D01*
X27869D01*
Y6151D01*
X28738D01*
Y5759D01*
X30546D01*
Y6151D01*
X32502D01*
X34528Y4125D01*
X34528Y4125D01*
X34675Y4026D01*
X34849Y3992D01*
X34849Y3992D01*
X40564D01*
X40737Y4026D01*
X40884Y4125D01*
X42408Y5649D01*
X42507Y5796D01*
X42541Y5969D01*
Y9210D01*
X42690Y9360D01*
X42808Y9311D01*
Y9113D01*
X44416D01*
Y9580D01*
X45080D01*
Y9364D01*
X45100Y9265D01*
X45156Y9181D01*
X45240Y9125D01*
X45339Y9105D01*
X48539D01*
X48638Y9125D01*
X48722Y9181D01*
X48778Y9265D01*
X48798Y9364D01*
Y10664D01*
X48778Y10763D01*
X48722Y10847D01*
X48638Y10903D01*
X48539Y10923D01*
D02*
G37*
%LPD*%
D10*
X12232Y2845D02*
D03*
X14032D02*
D03*
X39664Y18542D02*
D03*
X41464D02*
D03*
X9409Y6807D02*
D03*
X7609D02*
D03*
X25846Y4877D02*
D03*
X27646D02*
D03*
X8317Y9017D02*
D03*
X6517D02*
D03*
X39664Y16383D02*
D03*
X41464D02*
D03*
D11*
X21703Y20980D02*
D03*
X20003D02*
D03*
X30949Y18517D02*
D03*
X29249D02*
D03*
X31000Y16408D02*
D03*
X29300D02*
D03*
X14744Y14148D02*
D03*
X13044D02*
D03*
X38112Y14478D02*
D03*
X36412D02*
D03*
D12*
X29642Y6438D02*
D03*
Y4738D02*
D03*
D13*
X12832Y16866D02*
D03*
X14732D02*
D03*
D14*
X27165Y6782D02*
D03*
X25565D02*
D03*
X12510Y5232D02*
D03*
X14110D02*
D03*
X41237Y14478D02*
D03*
X39637D02*
D03*
D15*
X10262Y16272D02*
D03*
Y18272D02*
D03*
D16*
X14792Y19329D02*
D03*
D17*
X43612Y8117D02*
D03*
Y9917D02*
D03*
X22708Y2681D02*
D03*
Y4481D02*
D03*
X16535Y5653D02*
D03*
Y7453D02*
D03*
X12497Y11949D02*
D03*
Y10149D02*
D03*
X15037Y11949D02*
D03*
Y10149D02*
D03*
X23876Y24827D02*
D03*
Y23027D02*
D03*
X21590Y24827D02*
D03*
Y23027D02*
D03*
X19177Y24827D02*
D03*
Y23027D02*
D03*
X31166Y10552D02*
D03*
Y8752D02*
D03*
X28880Y10552D02*
D03*
Y8752D02*
D03*
X33452Y10552D02*
D03*
Y8752D02*
D03*
X16510Y1615D02*
D03*
Y3415D02*
D03*
D18*
X40945Y12519D02*
D03*
X39675D02*
D03*
X38405D02*
D03*
X37135D02*
D03*
X40945Y7039D02*
D03*
X39675D02*
D03*
X38405D02*
D03*
X37135D02*
D03*
D19*
X17847Y17532D02*
D03*
Y16732D02*
D03*
Y15932D02*
D03*
Y15132D02*
D03*
Y14332D02*
D03*
Y13532D02*
D03*
Y12732D02*
D03*
Y11932D02*
D03*
X26197D02*
D03*
Y12732D02*
D03*
Y13532D02*
D03*
Y14332D02*
D03*
Y15132D02*
D03*
Y15932D02*
D03*
Y16732D02*
D03*
Y17532D02*
D03*
D20*
X19222Y10557D02*
D03*
X20022D02*
D03*
X20822D02*
D03*
X21622D02*
D03*
X22422D02*
D03*
X23222D02*
D03*
X24022D02*
D03*
X24822D02*
D03*
Y18907D02*
D03*
X24022D02*
D03*
X23222D02*
D03*
X22422D02*
D03*
X21622D02*
D03*
X20822D02*
D03*
X20022D02*
D03*
X19222D02*
D03*
D21*
X9536Y3139D02*
D03*
Y5039D02*
D03*
X7786Y4089D02*
D03*
D22*
X20508Y5670D02*
D03*
X19558D02*
D03*
X18608D02*
D03*
Y3270D02*
D03*
X20508D02*
D03*
D23*
X23266Y8674D02*
D03*
Y7074D02*
D03*
X35484Y9106D02*
D03*
Y10706D02*
D03*
D24*
X46914Y20004D02*
D03*
Y17997D02*
D03*
Y15991D02*
D03*
Y14009D02*
D03*
Y12003D02*
D03*
Y9996D02*
D03*
D25*
X41464Y18415D02*
X46496D01*
X35203Y10552D02*
X35484Y10833D01*
X35776Y10541D01*
X18263Y24841D02*
X23862D01*
X27864Y10414D02*
X33314D01*
X22668Y2642D02*
X47092D01*
X22544D02*
X22665Y2762D01*
X49200Y18186D02*
X50317Y17069D01*
Y5867D02*
Y17069D01*
X47092Y2642D02*
X50317Y5867D01*
X35859Y25781D02*
Y26549D01*
X20508Y5543D02*
X20574Y5609D01*
X12296Y2843D02*
X12308Y3190D01*
X12283Y2424D02*
X12296Y2843D01*
X9562Y3190D02*
X12308D01*
X13386Y1321D02*
X18771D01*
X50151Y20004D02*
X51079Y19075D01*
Y4674D02*
Y19075D01*
X47720Y1315D02*
X51079Y4674D01*
X9027Y16571D02*
X13172D01*
Y16942D01*
X6528Y14072D02*
X9027Y16571D01*
X6528Y13388D02*
Y14072D01*
X11227Y14224D02*
X13044D01*
X28321Y18415D02*
X29350D01*
X27438Y17532D02*
X28321Y18415D01*
X26197Y17532D02*
X27438D01*
X9536Y6782D02*
Y7606D01*
X9409Y6782D02*
X9536D01*
Y4989D02*
X12347D01*
X15173Y18948D02*
X15376Y19152D01*
X14656Y18796D02*
Y20980D01*
X14986Y16358D02*
X16053D01*
X15376Y19152D02*
X15900D01*
X16307Y18745D01*
Y17018D02*
Y18745D01*
X22544Y2642D02*
X22668D01*
X22047D02*
X22544D01*
X22668D02*
X22708Y2681D01*
X21418Y3270D02*
X22047Y2642D01*
X20508Y3270D02*
X21418D01*
X18771Y1321D02*
X19558Y2108D01*
X12283Y2424D02*
X13386Y1321D01*
X18390Y5537D02*
X18593Y5740D01*
X14287Y5537D02*
X18390D01*
X14110Y5359D02*
X14287Y5537D01*
X9536Y5039D02*
Y6782D01*
Y4989D02*
Y5039D01*
X46914Y10033D02*
X46951D01*
X42723D02*
X46914D01*
X27343Y6604D02*
X32690D01*
X34849Y4445D01*
X27165Y6782D02*
X27343Y6604D01*
X25679Y5004D02*
Y7074D01*
X23266D02*
X25679D01*
X18815Y1315D02*
X47720D01*
X13538Y22098D02*
X14656Y20980D01*
X8712Y22098D02*
X13538D01*
X6528Y19914D02*
X8712Y22098D01*
X6528Y18288D02*
Y19914D01*
X13044Y14148D02*
Y14224D01*
X30950Y16510D02*
X33630D01*
X23222Y9150D02*
Y10557D01*
X19558Y3824D02*
X20508Y4774D01*
X19558Y2108D02*
Y3824D01*
X20508Y4774D02*
Y5543D01*
X42774Y21641D02*
X46152Y25019D01*
X38760Y21641D02*
X42774D01*
X33630Y16510D02*
X38760Y21641D01*
X42037Y22987D02*
X43612Y24562D01*
X38049Y22987D02*
X42037D01*
X33477Y18415D02*
X38049Y22987D01*
X43612Y24562D02*
Y26416D01*
X47828Y20004D02*
X50151D01*
X47447Y20385D02*
X47828Y20004D01*
X47447Y20385D02*
Y27788D01*
X46126Y29108D02*
X47447Y27788D01*
X36728Y29108D02*
X46126D01*
X35992Y28372D02*
X36728Y29108D01*
X35992Y26416D02*
Y28372D01*
X23862Y24841D02*
X23876Y24827D01*
X47103Y18186D02*
X49200D01*
X46914Y17997D02*
X47103Y18186D01*
X20508Y5543D02*
Y5670D01*
X10439Y11024D02*
X11365Y11949D01*
X10439Y8509D02*
Y11024D01*
X9536Y7606D02*
X10439Y8509D01*
X35484Y9233D02*
X37732D01*
X39675Y12519D02*
Y16245D01*
X35859Y26549D02*
X35992Y26416D01*
X17628Y24206D02*
X18263Y24841D01*
X17628Y17751D02*
Y24206D01*
Y17751D02*
X17847Y17532D01*
X30950Y18415D02*
X33477D01*
X46152Y25019D02*
Y26416D01*
X20003Y20980D02*
X20022Y20962D01*
Y18907D02*
Y20962D01*
X29128Y16732D02*
X29350Y16510D01*
X16307Y17018D02*
X16593Y16732D01*
X17847D01*
X16796Y14332D02*
X17847D01*
X16180Y13716D02*
X16796Y14332D01*
X16180Y12192D02*
Y13716D01*
X15545Y14224D02*
X16453Y15132D01*
X14821Y14224D02*
X15545D01*
X16053Y16358D02*
X16478Y15932D01*
X38112Y14478D02*
X38405Y14185D01*
Y12519D02*
Y14185D01*
X38112Y14478D02*
Y14732D01*
X27610Y10668D02*
Y11557D01*
X27235Y11932D02*
X27610Y11557D01*
X26197Y11932D02*
X27235D01*
X34341Y14478D02*
X36324D01*
X32595Y12732D02*
X34341Y14478D01*
X26197Y12732D02*
X32595D01*
X11365Y11949D02*
X12497D01*
X46496Y18415D02*
X46914Y17997D01*
X15937Y11949D02*
X16180Y12192D01*
X15037Y11949D02*
X15937D01*
X12497D02*
X15037D01*
X40564Y4445D02*
X42088Y5969D01*
X34849Y4445D02*
X40564D01*
X42088Y5969D02*
Y9398D01*
X19730Y17532D02*
X25330Y11932D01*
X17847Y17532D02*
X19730D01*
X25330Y11932D02*
X26197D01*
X36373Y10541D02*
X37135Y11303D01*
X35776Y10541D02*
X36373D01*
X33452Y10552D02*
X35203D01*
X40945Y12519D02*
X42796D01*
X39664Y16256D02*
X39675Y16245D01*
X33314Y10414D02*
X33452Y10552D01*
X27610Y10668D02*
X27864Y10414D01*
X37135Y11303D02*
Y12519D01*
X39675Y11176D02*
Y12519D01*
X37732Y9233D02*
X39675Y11176D01*
X42088Y9398D02*
X42723Y10033D01*
X46914Y9996D02*
X46951Y10033D01*
X46874Y13970D02*
X46914Y14009D01*
X44247Y13970D02*
X46874D01*
X42796Y12519D02*
X44247Y13970D01*
X46914Y14009D02*
Y14097D01*
X16478Y15932D02*
X17847D01*
X8317Y11314D02*
X11227Y14224D01*
X8317Y9017D02*
Y11314D01*
X26197Y16732D02*
X29128D01*
X16453Y15132D02*
X17847D01*
D26*
X7341Y16993D02*
X8153Y17805D01*
X4293Y16993D02*
X7341D01*
X3734Y17551D02*
X4293Y16993D01*
X8153Y17805D02*
Y19990D01*
X13744Y15903D02*
Y18389D01*
X13044Y15203D02*
X13744Y15903D01*
X13044Y14224D02*
Y15203D01*
X13736Y18397D02*
Y20478D01*
X13056Y21158D02*
X13736Y20478D01*
Y18397D02*
X13744Y18389D01*
X40335Y24460D02*
X41072Y25197D01*
X33579Y24460D02*
X40335D01*
X30912Y27127D02*
X33579Y24460D01*
X8153Y19990D02*
X9322Y21158D01*
X41072Y25197D02*
Y26416D01*
X7849Y27127D02*
X30912D01*
X3734Y23012D02*
X7849Y27127D01*
X3734Y17551D02*
Y23012D01*
X9322Y21158D02*
X13056D01*
X37218Y18371D02*
X38913Y20066D01*
X37218Y12910D02*
Y18371D01*
X37135Y12827D02*
X37218Y12910D01*
X41464Y18542D02*
Y19674D01*
Y18415D02*
Y18542D01*
X38913Y20066D02*
X41072D01*
X41464Y19674D01*
D27*
X46939Y14014D02*
D03*
Y12014D02*
D03*
Y10014D02*
D03*
Y16014D02*
D03*
Y18014D02*
D03*
X46914Y20014D02*
D03*
D28*
X46152Y26416D02*
D03*
X43612D02*
D03*
X41072D02*
D03*
X38532D02*
D03*
X48692D02*
D03*
D29*
X35992D02*
D03*
D30*
X6528Y13388D02*
D03*
D31*
Y18288D02*
D03*
M02*
