G04 Layer_Physical_Order=1*
G04 Layer_Color=255*
%FSLAX43Y43*%
%MOMM*%
G71*
G01*
G75*
%ADD10R,0.850X1.300*%
%ADD11R,1.300X0.850*%
%ADD12R,1.050X1.400*%
%ADD13R,0.900X1.000*%
%ADD14R,1.550X1.350*%
%ADD15R,1.350X1.550*%
%ADD16R,1.100X1.100*%
%ADD17R,1.100X1.100*%
%ADD18R,0.600X1.520*%
%ADD19O,1.650X0.450*%
%ADD20O,0.450X1.650*%
%ADD21R,1.250X0.600*%
%ADD22R,1.100X0.650*%
%ADD23R,1.000X0.900*%
%ADD24R,1.000X1.000*%
%ADD25C,0.381*%
%ADD26C,0.254*%
%ADD27R,3.200X1.300*%
%ADD28C,1.600*%
%ADD29R,1.600X1.600*%
%ADD30C,1.200*%
%ADD31R,1.200X1.200*%
G36*
X51741Y259D02*
X259D01*
Y30741D01*
X51741D01*
Y259D01*
D02*
G37*
%LPC*%
G36*
X38019Y8053D02*
X36911D01*
Y6025D01*
X38019D01*
Y8053D01*
D02*
G37*
G36*
X39289D02*
X38181D01*
Y6025D01*
X39289D01*
Y8053D01*
D02*
G37*
G36*
X22979Y7092D02*
X21471D01*
Y5684D01*
X21772D01*
Y5489D01*
X21446D01*
Y3881D01*
X23054D01*
Y5489D01*
X22678D01*
Y5684D01*
X22979D01*
Y5897D01*
X23947D01*
Y5545D01*
X25355D01*
Y7053D01*
X23947D01*
Y6803D01*
X22979D01*
Y7092D01*
D02*
G37*
G36*
X36749Y8053D02*
X35641D01*
Y6025D01*
X36749D01*
Y8053D01*
D02*
G37*
G36*
X30257Y28363D02*
X28649D01*
Y27876D01*
X28174D01*
Y28186D01*
X26766D01*
Y26678D01*
X28174D01*
Y26970D01*
X28649D01*
Y26755D01*
X28884D01*
Y26040D01*
X28463D01*
Y24882D01*
X30071D01*
Y26040D01*
X29790D01*
Y26755D01*
X30257D01*
Y28363D01*
D02*
G37*
G36*
X36525Y29485D02*
X36352Y29451D01*
X36205Y29353D01*
X34732Y27879D01*
X34633Y27732D01*
X34599Y27559D01*
Y27470D01*
X33998D01*
Y25362D01*
X34599D01*
Y24826D01*
X33787Y24014D01*
X32427D01*
Y24415D01*
X30819D01*
Y24014D01*
X30071D01*
Y24140D01*
X28463D01*
X28368Y24216D01*
X27671Y24913D01*
Y26040D01*
X26063D01*
Y25091D01*
X7112D01*
X6939Y25057D01*
X6792Y24958D01*
X2474Y20640D01*
X2375Y20493D01*
X2341Y20320D01*
Y12319D01*
X2375Y12146D01*
X2474Y11999D01*
X3479Y10994D01*
X3479Y10994D01*
X3626Y10895D01*
X3799Y10861D01*
X6924D01*
Y9821D01*
X6573D01*
Y8213D01*
X8181D01*
Y9821D01*
X7830D01*
Y11126D01*
X10475Y13771D01*
X11425D01*
Y13244D01*
X12783D01*
Y13259D01*
X13125D01*
Y13244D01*
X14483D01*
Y13771D01*
X14605D01*
X14671Y13784D01*
X14716Y13757D01*
X14787Y13677D01*
Y12753D01*
X13293D01*
Y12402D01*
X12361D01*
Y12753D01*
X10753D01*
Y12402D01*
X10425D01*
X10425Y12402D01*
X10252Y12368D01*
X10105Y12269D01*
X10105Y12269D01*
X9586Y11750D01*
X9487Y11603D01*
X9453Y11430D01*
Y8509D01*
X9487Y8336D01*
X9586Y8189D01*
X11200Y6574D01*
X11151Y6457D01*
X10918D01*
Y6356D01*
X5080D01*
X1799Y9637D01*
Y21986D01*
X6919Y27106D01*
X25166D01*
Y26678D01*
X26574D01*
Y28186D01*
X25166D01*
Y28012D01*
X6731D01*
X6731Y28012D01*
X6558Y27978D01*
X6411Y27879D01*
X6411Y27879D01*
X1026Y22495D01*
X927Y22348D01*
X893Y22174D01*
Y9449D01*
X927Y9275D01*
X1026Y9128D01*
X4572Y5583D01*
X4719Y5484D01*
X4892Y5450D01*
X4892Y5450D01*
X10918D01*
Y5349D01*
X12676D01*
Y5450D01*
X13293D01*
Y5154D01*
X14901D01*
Y6762D01*
X13293D01*
Y6356D01*
X12676D01*
Y6457D01*
X12250D01*
Y6618D01*
X12216Y6791D01*
X12117Y6938D01*
X10359Y8697D01*
Y11242D01*
X10613Y11496D01*
X10753D01*
Y11145D01*
X12361D01*
Y11496D01*
X13293D01*
Y11145D01*
X14901D01*
Y11496D01*
X14997D01*
X15170Y11530D01*
X15317Y11629D01*
X15560Y11872D01*
X15560Y11872D01*
X15659Y12019D01*
X15693Y12192D01*
Y13400D01*
X15713Y13414D01*
X15854Y13356D01*
X15856Y13345D01*
X15962Y13187D01*
Y13077D01*
X15856Y12919D01*
X15819Y12732D01*
X15856Y12545D01*
X15942Y12417D01*
X15954Y12332D01*
X15942Y12247D01*
X15856Y12119D01*
X15819Y11932D01*
X15856Y11745D01*
X15962Y11587D01*
X16120Y11481D01*
X16307Y11444D01*
X17507D01*
X17694Y11481D01*
X17831Y11572D01*
X17922Y11481D01*
X17883Y11421D01*
X17831Y11344D01*
X17794Y11157D01*
Y9957D01*
X17831Y9770D01*
X17937Y9612D01*
X18095Y9506D01*
X18282Y9469D01*
X18469Y9506D01*
X18627Y9612D01*
X18737D01*
X18895Y9506D01*
X19082Y9469D01*
X19269Y9506D01*
X19397Y9592D01*
X19482Y9604D01*
X19567Y9592D01*
X19695Y9506D01*
X19882Y9469D01*
X20069Y9506D01*
X20197Y9592D01*
X20282Y9604D01*
X20367Y9592D01*
X20495Y9506D01*
X20682Y9469D01*
X20869Y9506D01*
X20997Y9592D01*
X21082Y9604D01*
X21167Y9592D01*
X21295Y9506D01*
X21482Y9469D01*
X21669Y9506D01*
X21702Y9528D01*
X21829Y9460D01*
Y8692D01*
X21471D01*
Y7284D01*
X22979D01*
Y8692D01*
X22735D01*
Y9460D01*
X22862Y9528D01*
X22895Y9506D01*
X23082Y9469D01*
X23269Y9506D01*
X23427Y9612D01*
X23533Y9770D01*
X23570Y9957D01*
Y11157D01*
X23533Y11344D01*
X23427Y11502D01*
X23269Y11608D01*
X23082Y11645D01*
X22895Y11608D01*
X22737Y11502D01*
X22627D01*
X22469Y11608D01*
X22282Y11645D01*
X22095Y11608D01*
X21967Y11522D01*
X21882Y11510D01*
X21797Y11522D01*
X21669Y11608D01*
X21482Y11645D01*
X21295Y11608D01*
X21167Y11522D01*
X21082Y11510D01*
X20997Y11522D01*
X20869Y11608D01*
X20682Y11645D01*
X20495Y11608D01*
X20367Y11522D01*
X20282Y11510D01*
X20197Y11522D01*
X20069Y11608D01*
X19882Y11645D01*
X19695Y11608D01*
X19567Y11522D01*
X19482Y11510D01*
X19397Y11522D01*
X19269Y11608D01*
X19082Y11645D01*
X18895Y11608D01*
X18737Y11502D01*
X18627D01*
X18469Y11608D01*
X18282Y11645D01*
X18095Y11608D01*
X17958Y11517D01*
X17867Y11608D01*
X17906Y11668D01*
X17958Y11745D01*
X17995Y11932D01*
X17958Y12119D01*
X17872Y12247D01*
X17860Y12332D01*
X17872Y12417D01*
X17958Y12545D01*
X17995Y12732D01*
X17958Y12919D01*
X17852Y13077D01*
Y13187D01*
X17958Y13345D01*
X17995Y13532D01*
X17958Y13719D01*
X17872Y13847D01*
X17860Y13932D01*
X17872Y14017D01*
X17958Y14145D01*
X17995Y14332D01*
X17958Y14519D01*
X17872Y14647D01*
X17860Y14732D01*
X17872Y14817D01*
X17958Y14945D01*
X17995Y15132D01*
X17958Y15319D01*
X17872Y15447D01*
X17860Y15532D01*
X17872Y15617D01*
X17958Y15745D01*
X17995Y15932D01*
X17958Y16119D01*
X17872Y16247D01*
X17860Y16332D01*
X17872Y16417D01*
X17958Y16545D01*
X17995Y16732D01*
X17958Y16919D01*
X17936Y16952D01*
X18004Y17079D01*
X18602D01*
X24070Y11612D01*
X24070Y11612D01*
X24217Y11513D01*
X24390Y11479D01*
X24390Y11479D01*
X24480D01*
X24657Y11444D01*
X25857D01*
X26034Y11479D01*
X26107D01*
X26217Y11369D01*
Y10668D01*
X26251Y10495D01*
X26350Y10348D01*
X26604Y10094D01*
X26604Y10094D01*
X26751Y9995D01*
X26924Y9961D01*
X27136D01*
Y9748D01*
X28744D01*
Y9961D01*
X29422D01*
Y9748D01*
X31030D01*
Y9961D01*
X31708D01*
Y9748D01*
X33316D01*
Y10099D01*
X33790D01*
Y10002D01*
X35298D01*
Y10088D01*
X35433D01*
X35606Y10122D01*
X35753Y10221D01*
X36515Y10983D01*
X36614Y11130D01*
X36648Y11303D01*
Y11505D01*
X36749D01*
Y13438D01*
X36830Y13485D01*
X36911Y13438D01*
Y11505D01*
X38019D01*
Y13533D01*
X37989D01*
X37961Y13610D01*
X38043Y13724D01*
X38282D01*
Y13533D01*
X38181D01*
Y11505D01*
X38282D01*
Y11364D01*
X36604Y9686D01*
X35298D01*
Y9810D01*
X33790D01*
Y8402D01*
X35298D01*
Y8780D01*
X36792D01*
X36965Y8814D01*
X37112Y8913D01*
X39055Y10856D01*
X39154Y11003D01*
X39188Y11176D01*
X39188Y11176D01*
Y11505D01*
X39289D01*
Y13533D01*
X39188D01*
Y13724D01*
X39401D01*
Y15232D01*
X39188D01*
Y15579D01*
X39528D01*
Y17187D01*
X37920D01*
Y15579D01*
X38282D01*
Y15232D01*
X37993D01*
Y14559D01*
X37866Y14499D01*
X37851Y14511D01*
Y15382D01*
X36666D01*
Y18210D01*
X38134Y19678D01*
X39971D01*
X40136Y19513D01*
Y19346D01*
X39720D01*
Y17738D01*
X41328D01*
Y17962D01*
X44140D01*
Y17364D01*
X44160Y17265D01*
X44216Y17181D01*
X44300Y17125D01*
X44399Y17105D01*
X47599D01*
X47698Y17125D01*
X47782Y17181D01*
X47838Y17265D01*
X47858Y17364D01*
Y18664D01*
X47838Y18763D01*
X47782Y18847D01*
X47698Y18903D01*
X47599Y18923D01*
X44399D01*
X44300Y18903D01*
X44247Y18868D01*
X41328D01*
Y19346D01*
X40912D01*
Y19674D01*
X40883Y19823D01*
X40799Y19949D01*
X40407Y20341D01*
X40281Y20425D01*
X40132Y20454D01*
X37973D01*
X37824Y20425D01*
X37698Y20341D01*
X36003Y18646D01*
X35919Y18520D01*
X35890Y18371D01*
Y15382D01*
X34793D01*
Y14931D01*
X33401D01*
X33401Y14931D01*
X33228Y14897D01*
X33081Y14798D01*
X31467Y13185D01*
X26354D01*
X26286Y13312D01*
X26308Y13345D01*
X26345Y13532D01*
X26308Y13719D01*
X26222Y13847D01*
X26210Y13932D01*
X26222Y14017D01*
X26308Y14145D01*
X26345Y14332D01*
X26308Y14519D01*
X26222Y14647D01*
X26210Y14732D01*
X26222Y14817D01*
X26308Y14945D01*
X26345Y15132D01*
X26308Y15319D01*
X26202Y15477D01*
Y15587D01*
X26308Y15745D01*
X26345Y15932D01*
X26308Y16119D01*
X26286Y16152D01*
X26354Y16279D01*
X27706D01*
Y15756D01*
X29114D01*
Y17264D01*
X27706D01*
Y17185D01*
X27277D01*
X27224Y17312D01*
X27612Y17700D01*
X27706Y17661D01*
Y17661D01*
X29114D01*
Y19169D01*
X27706D01*
Y18868D01*
X27686D01*
X27513Y18834D01*
X27366Y18735D01*
X27366Y18735D01*
X26615Y17985D01*
X26034D01*
X25857Y18020D01*
X24657D01*
X24470Y17983D01*
X24333Y17892D01*
X24242Y17983D01*
X24281Y18043D01*
X24333Y18120D01*
X24370Y18307D01*
Y19507D01*
X24333Y19694D01*
X24227Y19852D01*
X24069Y19958D01*
X23882Y19995D01*
X23695Y19958D01*
X23567Y19872D01*
X23482Y19860D01*
X23397Y19872D01*
X23269Y19958D01*
X23082Y19995D01*
X22895Y19958D01*
X22767Y19872D01*
X22682Y19860D01*
X22597Y19872D01*
X22469Y19958D01*
X22282Y19995D01*
X22095Y19958D01*
X21967Y19872D01*
X21882Y19860D01*
X21797Y19872D01*
X21669Y19958D01*
X21482Y19995D01*
X21295Y19958D01*
X21167Y19872D01*
X21082Y19860D01*
X20997Y19872D01*
X20869Y19958D01*
X20682Y19995D01*
X20495Y19958D01*
X20367Y19872D01*
X20282Y19860D01*
X20197Y19872D01*
X20069Y19958D01*
X19882Y19995D01*
X19695Y19958D01*
X19567Y19872D01*
X19482Y19860D01*
X19397Y19872D01*
X19269Y19958D01*
X19082Y19995D01*
X18895Y19958D01*
X18737Y19852D01*
X18631Y19694D01*
X18594Y19507D01*
Y18307D01*
X18631Y18120D01*
X18646Y18097D01*
X18586Y17985D01*
X17684D01*
X17507Y18020D01*
X17360D01*
Y22307D01*
X17875Y22822D01*
X17992Y22773D01*
Y22702D01*
X19600D01*
Y23053D01*
X20405D01*
Y22702D01*
X22013D01*
Y23053D01*
X22691D01*
Y22702D01*
X24299D01*
Y23053D01*
X26063D01*
Y22982D01*
X26414D01*
Y22917D01*
X26448Y22744D01*
X26547Y22597D01*
X27233Y21910D01*
Y21632D01*
X26871D01*
Y20024D01*
X28479D01*
Y21632D01*
X28139D01*
Y22094D01*
X28147Y22102D01*
X28257Y22156D01*
X28382Y22032D01*
X28382Y22032D01*
X28529Y21933D01*
X28702Y21899D01*
X34544D01*
X34717Y21933D01*
X34864Y22032D01*
X36617Y23784D01*
X36715Y23931D01*
X36750Y24104D01*
Y25586D01*
X36877Y25636D01*
X37012Y25533D01*
Y23429D01*
X32451Y18868D01*
X30714D01*
Y19169D01*
X29306D01*
Y17661D01*
X30714D01*
Y17962D01*
X32639D01*
X32812Y17996D01*
X32959Y18095D01*
X37785Y22921D01*
X37785Y22921D01*
X37884Y23068D01*
X37918Y23241D01*
X37918Y23241D01*
Y25410D01*
X38124Y25495D01*
X38307Y25636D01*
X38434Y25586D01*
Y22946D01*
X32451Y16963D01*
X30714D01*
Y17264D01*
X29306D01*
Y15756D01*
X30714D01*
Y16057D01*
X32639D01*
X32812Y16091D01*
X32959Y16190D01*
X39208Y22438D01*
X39208Y22438D01*
X39306Y22585D01*
X39341Y22758D01*
X39341Y22759D01*
Y26744D01*
X39804Y27207D01*
X41791D01*
X41853Y27080D01*
X41751Y26948D01*
X41645Y26691D01*
X41609Y26416D01*
X41645Y26141D01*
X41751Y25884D01*
X41920Y25664D01*
X42140Y25495D01*
X42397Y25389D01*
X42672Y25353D01*
X42947Y25389D01*
X43204Y25495D01*
X43424Y25664D01*
X43593Y25884D01*
X43699Y26141D01*
X43735Y26416D01*
X43699Y26691D01*
X43593Y26948D01*
X43424Y27168D01*
X43204Y27337D01*
X43111Y27375D01*
X43091Y27478D01*
X42992Y27625D01*
X42992Y27625D01*
X42893Y27725D01*
X42942Y27842D01*
X43780D01*
X44458Y27164D01*
X44291Y26948D01*
X44185Y26691D01*
X44149Y26416D01*
X44185Y26141D01*
X44291Y25884D01*
X44460Y25664D01*
X44680Y25495D01*
X44937Y25389D01*
X45212Y25353D01*
X45487Y25389D01*
X45744Y25495D01*
X45876Y25597D01*
X46003Y25535D01*
Y20923D01*
X44374D01*
X44275Y20903D01*
X44191Y20847D01*
X44135Y20763D01*
X44115Y20664D01*
Y19364D01*
X44135Y19265D01*
X44191Y19181D01*
X44275Y19125D01*
X44374Y19105D01*
X47574D01*
X47673Y19125D01*
X47757Y19181D01*
X47813Y19265D01*
X47833Y19364D01*
Y19551D01*
X49023D01*
X49585Y18989D01*
Y4760D01*
X46853Y2028D01*
X14539D01*
Y2879D01*
X14890D01*
Y4487D01*
X13282D01*
Y4456D01*
X12676D01*
Y4557D01*
X10918D01*
Y3449D01*
X12676D01*
Y3550D01*
X13282D01*
Y2879D01*
X13633D01*
Y1789D01*
X13667Y1616D01*
X13766Y1469D01*
X13980Y1254D01*
X14127Y1156D01*
X14300Y1122D01*
X47041D01*
X47214Y1156D01*
X47361Y1254D01*
X50358Y4252D01*
X50457Y4399D01*
X50491Y4572D01*
Y19177D01*
X50457Y19350D01*
X50358Y19497D01*
X50358Y19497D01*
X49532Y20324D01*
X49385Y20423D01*
X49211Y20457D01*
X47833D01*
Y20664D01*
X47813Y20763D01*
X47757Y20847D01*
X47673Y20903D01*
X47574Y20923D01*
X46910D01*
Y25586D01*
X47037Y25636D01*
X47220Y25495D01*
X47477Y25389D01*
X47752Y25353D01*
X48027Y25389D01*
X48284Y25495D01*
X48504Y25664D01*
X48673Y25884D01*
X48779Y26141D01*
X48815Y26416D01*
X48779Y26691D01*
X48673Y26948D01*
X48504Y27168D01*
X48284Y27337D01*
X48027Y27443D01*
X47752Y27479D01*
X47477Y27443D01*
X47220Y27337D01*
X47037Y27196D01*
X46999Y27198D01*
X46927Y27226D01*
X46901Y27246D01*
X46875Y27377D01*
X46777Y27524D01*
X46777Y27524D01*
X44948Y29353D01*
X44801Y29451D01*
X44628Y29485D01*
X36525D01*
X36525Y29485D01*
D02*
G37*
G36*
X47599Y10923D02*
X44399D01*
X44300Y10903D01*
X44216Y10847D01*
X44160Y10763D01*
X44140Y10664D01*
Y10486D01*
X43476D01*
Y10721D01*
X41868D01*
Y10486D01*
X41783D01*
X41610Y10452D01*
X41463Y10353D01*
X41463Y10353D01*
X40828Y9718D01*
X40729Y9571D01*
X40695Y9398D01*
Y6157D01*
X39436Y4898D01*
X34097D01*
X32451Y6543D01*
X32304Y6642D01*
X32131Y6676D01*
X29073D01*
Y6888D01*
X27265D01*
Y6676D01*
X26955D01*
Y7053D01*
X25547D01*
Y5545D01*
X26955D01*
Y5770D01*
X27265D01*
Y5530D01*
X29073D01*
Y5770D01*
X31943D01*
X33589Y4125D01*
X33589Y4125D01*
X33736Y4026D01*
X33909Y3992D01*
X39624D01*
X39797Y4026D01*
X39944Y4125D01*
X41468Y5649D01*
X41567Y5796D01*
X41601Y5969D01*
Y9210D01*
X41751Y9360D01*
X41868Y9311D01*
Y9113D01*
X43476D01*
Y9580D01*
X44140D01*
Y9364D01*
X44160Y9265D01*
X44216Y9181D01*
X44300Y9125D01*
X44399Y9105D01*
X47599D01*
X47698Y9125D01*
X47782Y9181D01*
X47838Y9265D01*
X47858Y9364D01*
Y10664D01*
X47838Y10763D01*
X47782Y10847D01*
X47698Y10903D01*
X47599Y10923D01*
D02*
G37*
G36*
Y14923D02*
X44399D01*
X44300Y14903D01*
X44216Y14847D01*
X44160Y14763D01*
X44140Y14664D01*
Y14423D01*
X43307D01*
X43307Y14423D01*
X43134Y14389D01*
X42987Y14290D01*
X42987Y14290D01*
X41668Y12972D01*
X40559D01*
Y13533D01*
X39451D01*
Y11505D01*
X40559D01*
Y12066D01*
X41856D01*
X42029Y12100D01*
X42176Y12199D01*
X43495Y13517D01*
X44140D01*
Y13364D01*
X44160Y13265D01*
X44216Y13181D01*
X44300Y13125D01*
X44399Y13105D01*
X47599D01*
X47698Y13125D01*
X47782Y13181D01*
X47838Y13265D01*
X47858Y13364D01*
Y14664D01*
X47838Y14763D01*
X47782Y14847D01*
X47698Y14903D01*
X47599Y14923D01*
D02*
G37*
%LPD*%
G36*
X17992Y23959D02*
X17918D01*
X17745Y23925D01*
X17598Y23826D01*
X17598Y23826D01*
X16571Y22799D01*
X16472Y22652D01*
X16438Y22479D01*
X16454Y22399D01*
Y18020D01*
X16307D01*
X16120Y17983D01*
X15962Y17877D01*
X15947Y17856D01*
X15820Y17894D01*
Y18745D01*
X15786Y18919D01*
X15687Y19066D01*
X15281Y19472D01*
X15134Y19570D01*
X14961Y19605D01*
X14781D01*
Y20358D01*
X14169D01*
Y20625D01*
X14135Y20798D01*
X14036Y20945D01*
X14036Y20945D01*
X13757Y21225D01*
X13610Y21323D01*
X13437Y21357D01*
X7442D01*
X7442Y21357D01*
X7269Y21323D01*
X7122Y21225D01*
X5268Y19370D01*
X5169Y19223D01*
X5153Y19142D01*
X4734D01*
Y17434D01*
X6442D01*
Y19142D01*
X6442D01*
X6407Y19228D01*
X7630Y20451D01*
X12840D01*
X12923Y20358D01*
Y18300D01*
X14781D01*
Y18377D01*
X14908Y18445D01*
X14914Y18441D01*
Y17018D01*
X14930Y16938D01*
X14830Y16811D01*
X14658D01*
Y17820D01*
X13335D01*
Y17831D01*
X12573D01*
Y17831D01*
X12562Y17820D01*
X11200D01*
Y17024D01*
X10351D01*
Y17201D01*
X8293D01*
Y17024D01*
X7681D01*
X7681Y17024D01*
X7508Y16990D01*
X7361Y16891D01*
X7361Y16891D01*
X5268Y14798D01*
X5169Y14651D01*
X5135Y14478D01*
Y14117D01*
X4979Y13997D01*
X4842Y13819D01*
X4756Y13611D01*
X4727Y13388D01*
X4756Y13165D01*
X4842Y12957D01*
X4979Y12779D01*
X5157Y12642D01*
X5365Y12556D01*
X5588Y12527D01*
X5811Y12556D01*
X6019Y12642D01*
X6197Y12779D01*
X6334Y12957D01*
X6420Y13165D01*
X6449Y13388D01*
X6420Y13611D01*
X6334Y13819D01*
X6197Y13997D01*
X6041Y14117D01*
Y14290D01*
X7869Y16118D01*
X8293D01*
Y15343D01*
X10351D01*
Y16118D01*
X11200D01*
Y15912D01*
X12584D01*
X12588Y15142D01*
X12498Y15052D01*
X11425D01*
Y14677D01*
X10287D01*
X10287Y14677D01*
X10114Y14643D01*
X9967Y14544D01*
X9967Y14544D01*
X7189Y11767D01*
X3987D01*
X3247Y12507D01*
Y20132D01*
X7300Y24185D01*
X17992D01*
Y23959D01*
D02*
G37*
D10*
X13804Y14148D02*
D03*
X12104D02*
D03*
X37172Y14478D02*
D03*
X35472D02*
D03*
D11*
X28169Y6209D02*
D03*
Y4509D02*
D03*
D12*
X11979Y16866D02*
D03*
X13879D02*
D03*
D13*
X26251Y6299D02*
D03*
X24651D02*
D03*
X25870Y27432D02*
D03*
X27470D02*
D03*
X40297Y14478D02*
D03*
X38697D02*
D03*
X30010Y16510D02*
D03*
X28410D02*
D03*
X30010Y18415D02*
D03*
X28410D02*
D03*
D14*
X9322Y16272D02*
D03*
Y18272D02*
D03*
D15*
X13852Y19329D02*
D03*
X11852D02*
D03*
D16*
X38724Y18542D02*
D03*
X40524D02*
D03*
X27675Y20828D02*
D03*
X29475D02*
D03*
X14086Y3683D02*
D03*
X15886D02*
D03*
X29453Y27559D02*
D03*
X31253D02*
D03*
X7377Y9017D02*
D03*
X5577D02*
D03*
X38724Y16383D02*
D03*
X40524D02*
D03*
D17*
X42672Y8117D02*
D03*
Y9917D02*
D03*
X14097Y5958D02*
D03*
Y7758D02*
D03*
X22250Y4685D02*
D03*
Y2885D02*
D03*
X11557Y11949D02*
D03*
Y10149D02*
D03*
X14097Y11949D02*
D03*
Y10149D02*
D03*
X23495Y23506D02*
D03*
Y21706D02*
D03*
X21209Y23506D02*
D03*
Y21706D02*
D03*
X18796Y23506D02*
D03*
Y21706D02*
D03*
X30226Y10552D02*
D03*
Y8752D02*
D03*
X27940Y10552D02*
D03*
Y8752D02*
D03*
X32512Y10552D02*
D03*
Y8752D02*
D03*
X31623Y23611D02*
D03*
Y25411D02*
D03*
D18*
X40005Y12519D02*
D03*
X38735D02*
D03*
X37465D02*
D03*
X36195D02*
D03*
X40005Y7039D02*
D03*
X38735D02*
D03*
X37465D02*
D03*
X36195D02*
D03*
D19*
X16907Y17532D02*
D03*
Y16732D02*
D03*
Y15932D02*
D03*
Y15132D02*
D03*
Y14332D02*
D03*
Y13532D02*
D03*
Y12732D02*
D03*
Y11932D02*
D03*
X25257D02*
D03*
Y12732D02*
D03*
Y13532D02*
D03*
Y14332D02*
D03*
Y15132D02*
D03*
Y15932D02*
D03*
Y16732D02*
D03*
Y17532D02*
D03*
D20*
X18282Y10557D02*
D03*
X19082D02*
D03*
X19882D02*
D03*
X20682D02*
D03*
X21482D02*
D03*
X22282D02*
D03*
X23082D02*
D03*
X23882D02*
D03*
Y18907D02*
D03*
X23082D02*
D03*
X22282D02*
D03*
X21482D02*
D03*
X20682D02*
D03*
X19882D02*
D03*
X19082D02*
D03*
X18282D02*
D03*
D21*
X11797Y4003D02*
D03*
Y5903D02*
D03*
X10047Y4953D02*
D03*
D22*
X29267Y23561D02*
D03*
Y24511D02*
D03*
Y25461D02*
D03*
X26867D02*
D03*
Y23561D02*
D03*
D23*
X22225Y7988D02*
D03*
Y6388D02*
D03*
X34544Y9106D02*
D03*
Y10706D02*
D03*
D24*
X45974Y20004D02*
D03*
Y17997D02*
D03*
Y15991D02*
D03*
Y14009D02*
D03*
Y12003D02*
D03*
Y9996D02*
D03*
D25*
X10287Y14224D02*
X12281D01*
X2794Y20320D02*
X7112Y24638D01*
X2794Y12319D02*
Y20320D01*
Y12319D02*
X3799Y11314D01*
X1346Y22174D02*
X6731Y27559D01*
X1346Y9449D02*
Y22174D01*
Y9449D02*
X4892Y5903D01*
X7681Y16571D02*
X12233D01*
Y16942D01*
X36525Y29032D02*
X44628D01*
X35052Y27559D02*
X36525Y29032D01*
X44628D02*
X46457Y27204D01*
X29267Y23561D02*
X33975D01*
X36297Y26880D02*
X37712Y28295D01*
X36297Y24104D02*
Y26880D01*
X37712Y28295D02*
X43967D01*
X45212Y27051D01*
X35052Y26416D02*
Y27559D01*
X34544Y22352D02*
X36297Y24104D01*
X37465Y23241D02*
Y26416D01*
X15367Y17018D02*
Y18745D01*
Y17018D02*
X15653Y16732D01*
X16907D01*
X15856Y14332D02*
X16907D01*
X15240Y13716D02*
X15856Y14332D01*
X15240Y12192D02*
Y13716D01*
X14605Y14224D02*
X15513Y15132D01*
X13881Y14224D02*
X14605D01*
X12852Y13005D02*
X12954D01*
X15113Y16358D02*
X15539Y15932D01*
X14046Y16358D02*
X15113D01*
X5588Y14478D02*
X7681Y16571D01*
X37172Y14478D02*
X37465Y14185D01*
Y12519D02*
Y14185D01*
X37172Y14478D02*
Y14732D01*
X42317Y27660D02*
X42672Y27305D01*
X39617Y27660D02*
X42317D01*
X38888Y26931D02*
X39617Y27660D01*
X14233Y18948D02*
X14437Y19152D01*
X13716Y18796D02*
Y20625D01*
X14437Y19152D02*
X14961D01*
X15367Y18745D01*
X13437Y20904D02*
X13716Y20625D01*
X7442Y20904D02*
X13437D01*
X5588Y19050D02*
X7442Y20904D01*
X47041Y1575D02*
X50038Y4572D01*
X14300Y1575D02*
X47041D01*
X14086Y1789D02*
X14300Y1575D01*
X22282Y7988D02*
Y10557D01*
X22225Y6350D02*
X24754D01*
X22225D02*
X22225D01*
Y6388D01*
Y4710D02*
Y6350D01*
Y4710D02*
X22250Y4685D01*
X41783Y10033D02*
X45974D01*
X46011D01*
X26708Y6223D02*
X32131D01*
X33909Y4445D01*
X40524Y18415D02*
X45556D01*
X34544Y10833D02*
X34836Y10541D01*
X34263Y10552D02*
X34544Y10833D01*
X26924Y10414D02*
X32374D01*
X46457Y20486D02*
Y27204D01*
X27305Y24638D02*
X28067Y23876D01*
Y22987D02*
Y23876D01*
X7112Y24638D02*
X27305D01*
X35052D02*
Y26416D01*
X33975Y23561D02*
X35052Y24638D01*
X28702Y22352D02*
X34544D01*
X38888Y22758D02*
Y26931D01*
X32639Y16510D02*
X38888Y22758D01*
X30010Y16510D02*
X32639D01*
Y18415D02*
X37465Y23241D01*
X30010Y18415D02*
X32639D01*
X38735Y12519D02*
Y16245D01*
X34544Y9233D02*
X36792D01*
X26670Y10668D02*
Y11557D01*
X26295Y11932D02*
X26670Y11557D01*
X25257Y11932D02*
X26295D01*
X5588Y18288D02*
Y19050D01*
X33401Y14478D02*
X35384D01*
X31655Y12732D02*
X33401Y14478D01*
X25257Y12732D02*
X31655D01*
X50038Y4572D02*
Y19177D01*
X10425Y11949D02*
X11557D01*
X9906Y11430D02*
X10425Y11949D01*
X9906Y8509D02*
Y11430D01*
Y8509D02*
X11797Y6618D01*
Y5903D02*
Y6618D01*
X45556Y18415D02*
X45974Y17997D01*
X3799Y11314D02*
X7377D01*
X25743Y27559D02*
X25870Y27432D01*
X6731Y27559D02*
X25743D01*
X27729Y27423D02*
X29094D01*
X27729D02*
Y27432D01*
X29337Y25531D02*
Y27421D01*
X4892Y5903D02*
X11797D01*
X14997Y11949D02*
X15240Y12192D01*
X14097Y11949D02*
X14997D01*
X11557D02*
X14097D01*
X14042Y5903D02*
X14097Y5958D01*
X11797Y5903D02*
X14042D01*
X45974Y20004D02*
X49211D01*
X50038Y19177D01*
X39624Y4445D02*
X41148Y5969D01*
X33909Y4445D02*
X39624D01*
X41148Y5969D02*
Y9398D01*
X14086Y1789D02*
Y3683D01*
X13766Y4003D02*
X14086Y3683D01*
X11797Y4003D02*
X13766D01*
X45974Y20004D02*
X46457Y20486D01*
X27675Y20828D02*
X27686Y20839D01*
Y22098D01*
X26867Y22917D02*
X27686Y22098D01*
X26867Y22917D02*
Y23561D01*
X28067Y22987D02*
X28702Y22352D01*
X23495Y23506D02*
X26812D01*
X21209D02*
X23495D01*
X18796D02*
X21209D01*
X26812D02*
X26867Y23561D01*
X17918Y23506D02*
X18796D01*
X16891Y22479D02*
X17918Y23506D01*
X16891Y22479D02*
X16907Y22463D01*
Y17532D02*
Y22463D01*
X18790Y17532D02*
X24390Y11932D01*
X16907Y17532D02*
X18790D01*
X24390Y11932D02*
X25257D01*
X35433Y10541D02*
X36195Y11303D01*
X34836Y10541D02*
X35433D01*
X32512Y10552D02*
X34263D01*
X40005Y12519D02*
X41856D01*
X38724Y16256D02*
X38735Y16245D01*
X32374Y10414D02*
X32512Y10552D01*
X26670Y10668D02*
X26924Y10414D01*
X36195Y11303D02*
Y12519D01*
X38735Y11176D02*
Y12519D01*
X36792Y9233D02*
X38735Y11176D01*
X41148Y9398D02*
X41783Y10033D01*
X45974Y9996D02*
X46011Y10033D01*
X45935Y13970D02*
X45974Y14009D01*
X43307Y13970D02*
X45935D01*
X41856Y12519D02*
X43307Y13970D01*
X45974Y14009D02*
Y14097D01*
X15539Y15932D02*
X16907D01*
X45212Y26416D02*
Y27051D01*
X7377Y11314D02*
X10287Y14224D01*
X7377Y9017D02*
Y11314D01*
X29326Y27432D02*
X29337Y27421D01*
X29094Y27432D02*
X29326D01*
X29094Y27423D02*
Y27432D01*
X27470D02*
X27729D01*
X42672Y26416D02*
Y27305D01*
X25257Y17532D02*
X26803D01*
X27686Y18415D01*
X28410D01*
X25257Y16732D02*
X28188D01*
X28410Y16510D01*
X15513Y15132D02*
X16907D01*
X5588Y13388D02*
Y14478D01*
X29267Y25461D02*
X29337Y25531D01*
D26*
X12954Y13005D02*
Y17831D01*
X36278Y18371D02*
X37973Y20066D01*
X36278Y12910D02*
Y18371D01*
X36195Y12827D02*
X36278Y12910D01*
X40524Y18542D02*
Y19674D01*
Y18415D02*
Y18542D01*
X37973Y20066D02*
X40132D01*
X40524Y19674D01*
D27*
X45999Y14014D02*
D03*
Y12014D02*
D03*
Y10014D02*
D03*
Y16014D02*
D03*
Y18014D02*
D03*
X45974Y20014D02*
D03*
D28*
X45212Y26416D02*
D03*
X42672D02*
D03*
X40132D02*
D03*
X37592D02*
D03*
X47752D02*
D03*
D29*
X35052D02*
D03*
D30*
X5588Y13388D02*
D03*
D31*
Y18288D02*
D03*
M02*
